<?xml version="1.0" encoding="UTF-8" standalone="no"?>
<svg
   xmlns:dc="http://purl.org/dc/elements/1.1/"
   xmlns:cc="http://creativecommons.org/ns#"
   xmlns:rdf="http://www.w3.org/1999/02/22-rdf-syntax-ns#"
   xmlns:svg="http://www.w3.org/2000/svg"
   xmlns="http://www.w3.org/2000/svg"
   id="svg8"
   version="1.1"
   viewBox="0 0 64 64"
   height="64mm"
   width="64mm">
  <defs
     id="defs2" />
  <metadata
     id="metadata5">
    <rdf:RDF>
      <cc:Work
         rdf:about="">
        <dc:format>image/svg+xml</dc:format>
        <dc:type
           rdf:resource="http://purl.org/dc/dcmitype/StillImage" />
        <dc:title></dc:title>
      </cc:Work>
    </rdf:RDF>
  </metadata>
  <g
     transform="translate(-14.103985,-138.9156)"
     id="layer1">
    <path
       transform="matrix(0.26458333,0,0,0.26458333,14.103985,138.9156)"
       id="path14"
       d="M 120.94531 0 A 120.94488 120.94488 0 0 0 0 120.94531 A 120.94488 120.94488 0 0 0 120.94531 241.89062 A 120.94488 120.94488 0 0 0 241.89062 120.94531 A 120.94488 120.94488 0 0 0 120.94531 0 z M 123.19922 60.472656 C 132.85659 60.472656 141.80753 62.422771 150.05273 66.324219 C 158.34349 70.225666 165.29143 75.764377 170.89453 82.939453 C 174.31105 87.334187 176.907 92.110492 178.68359 97.267578 C 180.50574 102.42466 181.41797 107.7615 181.41797 113.27734 C 181.41797 125.07138 177.79576 134.37508 170.55273 141.19141 C 163.30971 148.00773 153.31166 151.55125 140.55664 151.82031 L 140.55664 141.46094 C 137.82342 144.91394 134.68014 147.46967 131.12695 149.12891 C 127.61932 150.7433 123.5182 151.55078 118.82617 151.55078 C 110.99095 151.55078 104.61315 148.77162 99.693359 143.21094 C 94.819121 137.60541 92.382813 130.3165 92.382812 121.34766 C 92.382812 112.37881 94.841927 105.09186 99.761719 99.486328 C 104.68151 93.8808 111.0365 91.078125 118.82617 91.078125 C 123.5182 91.078125 127.64213 91.930685 131.19531 93.634766 C 134.7485 95.294002 137.86898 97.828167 140.55664 101.23633 L 140.55664 92.423828 L 150.32617 92.423828 L 150.32617 141.93164 C 156.977 140.94507 162.17085 137.96404 165.90625 132.98633 C 169.6872 127.96377 171.57812 121.48235 171.57812 113.54492 C 171.57813 108.74659 170.84834 104.24075 169.39062 100.02539 C 167.97846 95.810033 165.81582 91.907851 162.90039 88.320312 C 158.16281 82.445719 152.37601 77.961439 145.54297 74.867188 C 138.75548 71.728092 131.35338 70.158203 123.33594 70.158203 C 117.73284 70.158203 112.3585 70.899047 107.21094 72.378906 C 102.06338 73.813921 97.302836 75.965907 92.929688 78.835938 C 85.777768 83.410049 80.173414 89.41914 76.119141 96.863281 C 72.110421 104.26258 70.107422 112.29038 70.107422 120.94531 C 70.107422 128.07554 71.405396 134.75689 74.001953 140.99023 C 76.644064 147.22358 80.446764 152.71722 85.412109 157.4707 C 90.19524 162.1345 95.731177 165.67607 102.01758 168.09766 C 108.30398 170.56409 115.02386 171.79883 122.17578 171.79883 C 128.0522 171.79883 133.81424 170.81104 139.46289 168.83789 C 145.15709 166.90959 150.3718 164.13043 155.10938 160.49805 L 161.25977 167.96484 C 155.56556 172.31473 149.34741 175.63287 142.60547 177.91992 C 135.90909 180.25182 129.09993 181.41797 122.17578 181.41797 C 113.74836 181.41797 105.79892 179.93823 98.328125 176.97852 C 90.85733 174.06364 84.205865 169.80279 78.375 164.19727 C 72.544135 158.59174 68.102874 152.11227 65.050781 144.75781 C 61.998688 137.35852 60.472656 129.42087 60.472656 120.94531 C 60.472656 112.78366 62.021494 105.00281 65.119141 97.603516 C 68.216787 90.204218 72.635243 83.701231 78.375 78.095703 C 84.251418 72.400486 91.039718 68.051438 98.738281 65.046875 C 106.43684 61.997468 114.58958 60.472656 123.19922 60.472656 z M 121.35547 100.83203 C 115.84348 100.83203 111.44783 102.67043 108.16797 106.34766 C 104.93366 110.02488 103.31641 115.02462 103.31641 121.34766 C 103.31641 127.76038 104.93366 132.80715 108.16797 136.48438 C 111.40228 140.11676 115.84354 141.93164 121.49219 141.93164 C 127.09528 141.93164 131.49093 140.09324 134.67969 136.41602 C 137.914 132.73879 139.53125 127.71554 139.53125 121.34766 C 139.53125 115.06946 137.89119 110.09324 134.61133 106.41602 C 131.33147 102.69394 126.91301 100.83203 121.35547 100.83203 z "
       style="fill:#000000;fill-opacity:1;stroke:none;stroke-width:0.99999994;stroke-miterlimit:4;stroke-dasharray:none;stroke-opacity:1" />
  </g>
</svg>
